# xmcd
#
# Track frame offsets:
#       150
#       13530
#       29495
#       49531
#       66210
#       85350
#       103919
#       117922
#       132057
#       143122
#       160860
#       183498
#       203091
#
# Disc length: 3220 seconds
#
# Revision: 0
# Processed by: cddbd v1.4PL0 Copyright (c) Steve Scherf et al.
# Submitted via: CD-DA_X-Tractor v0.23
#
DISCID=b00c920d
DTITLE=Anchorhead - love and the color blue
DYEAR=2002
DGENRE=alternative country
TTITLE0=unkle ray
TTITLE1=double wide
TTITLE2=Madison st.
TTITLE3=WHisKey in the sNow
TTITLE4=meSSage
TTITLE5=never
TTITLE6=Lemon Line
TTITLE7=virginia
TTITLE8=next sPring
TTITLE9=coUnty Fair
TTITLE10=good-bye
TTITLE11=st. paul
TTITLE12=mary
EXTD=
EXTT0=
EXTT1=
EXTT2=
EXTT3=
EXTT4=
EXTT5=
EXTT6=
EXTT7=
EXTT8=
EXTT9=
EXTT10=
EXTT11=
EXTT12=
PLAYORDER=
